<svg xmlns="http://www.w3.org/2000/svg" viewBox="0 0 213 228" fill="none">
  <path d="M4.81605 131.002C14.7561 123.476 25.2641 119.074 39.6061 119.074C53.3801 119.074 63.3201 123.618 69.8521 133.274C77.6621 129.724 84.7621 127.168 90.5841 125.606L93.1401 128.73C80.2181 136.966 75.3901 146.906 79.2241 175.59C81.9221 195.47 89.7321 215.208 98.9621 222.308L97.1161 226H74.3961C73.6861 215.492 72.5501 206.262 69.2841 183.4C56.0781 225.148 18.7321 233.384 6.66205 224.722C-2.70995 217.764 -3.41995 191.494 23.7021 164.23C32.7901 155.426 45.0021 146.338 57.9241 139.238C47.8421 125.748 30.0921 123.76 6.80405 134.978L4.81605 131.002ZM19.3001 212.794C28.3881 218.9 44.5761 210.238 55.0841 196.606C62.4681 186.95 68.1481 176.3 66.1601 161.248C65.1661 154.432 63.4621 148.752 60.9061 143.924C48.4101 151.45 37.1921 159.97 29.5241 168.064C16.1761 182.122 10.4961 206.972 19.3001 212.794Z" fill="#000"/>
</svg>
