<svg xmlns="http://www.w3.org/2000/svg" viewBox="0 0 213 228" fill="none">
  <path d="M164.24 223.018C174.18 219.326 177.162 213.788 177.162 202.996V179.566C177.162 164.23 171.34 156.704 159.696 156.704C147.626 156.704 140.81 164.798 134.562 173.886V202.996C134.562 213.788 137.544 219.184 148.904 223.018L148.336 226.994C141.378 226.284 132.858 226 128.314 226C123.77 226 116.67 226.284 108.008 226.994L107.44 223.018C118.8 219.326 121.782 213.788 121.782 202.996V147.474C121.782 136.682 118.516 127.594 108.008 127.594V124.186C122.634 121.488 130.586 116.234 137.828 107.856L140.384 109.986C135.982 120.92 134.562 132.422 134.562 143.214V167.638C142.514 153.58 155.436 145.77 166.228 145.77C182.132 145.77 189.942 156.846 189.942 178.998V202.996C189.942 213.788 192.924 219.184 204.284 223.018L203.716 226.994C196.758 226.284 188.238 226 183.694 226C179.15 226 172.05 226.284 164.808 226.994L164.24 223.018Z" fill="#000"/>
</svg>
