<svg xmlns="http://www.w3.org/2000/svg" viewBox="0 0 213 228" fill="none">
  <path d="M6.52005 104.018C17.8801 98.906 21.5721 93.368 21.5721 81.156V32.734C21.5721 14.842 17.8801 9.30399 6.52005 4.19199L7.08805 0.215988C12.7681 0.783989 16.1761 1.20998 20.0101 1.20998C23.5601 1.20998 27.1101 0.641991 30.3761 0.0739899L101.518 83.996V27.054C101.518 14.842 98.5361 9.30399 84.3361 4.19199L84.9041 0.215988C94.4181 1.06799 99.9561 1.20998 104.358 1.20998C108.76 1.20998 114.014 0.925987 120.972 0.215988L121.54 4.19199C110.18 9.44599 107.198 14.842 107.198 27.054V107.142L102.796 109.698L27.2521 20.522V81.156C27.2521 93.368 30.2341 98.764 44.4341 104.018L43.8661 107.994C34.6361 107.284 28.1041 107 23.1341 107C17.7381 107 15.0401 107.284 7.08805 107.994L6.52005 104.018Z" fill="#000"/>
</svg>
