<?xml version="1.0" encoding="UTF-8"?>
<svg id="Layer_1" xmlns="http://www.w3.org/2000/svg" version="1.1" viewBox="0 0 2048 1024">
  <!-- Generator: Adobe Illustrator 30.4.0, SVG Export Plug-In . SVG Version: 2.1.4 Build 226)  -->
  <defs>
    <style>
      .st0 {
        fill: #006400;
      }

      .st0, .st1, .st2, .st3 {
        fill-rule: evenodd;
      }

      .st1 {
        fill: red;
      }

      .st5 {
        fill: #fff;
      }

      .st3 {
        fill: blue;
      }
    </style>
  </defs>
  <rect class="st5" x="-3" y="-18" width="2048" height="1024"/>
  <path id="blue-ink" class="st3" d="M745,705l-8,3v7l4-1,4-3v-6ZM740,696l8-2-6-2-2,4ZM532,589l3,10-1,27,2,5v10l4,12v32l2,2v6l2,3v7l4,5v9l4,5v11l4,5v4l7-1,2-3-5-8v-11l-4-5v-8l-4-7v-5l-2-3v-7l-2-2v-30l-4-12v-10l-2-5,1-24h-4l-5-4,1-3,6-4h-8l-1-1ZM1419,551l-10,8,1,7h7v-7l2-2v-6ZM585,579v28l2,3v12l2,2v14l2,3v13l2,2,2,14,4,8v3l2,2,12-1,4-3,13-3,10-4,12-7,14-4,7-4,14-2,22-7,3-2,9-1,3-2h5l6-3,4-4v-4l-4-2v-5l-2-2v-8l-2-2v-13l1-1,10,1,11-3h15l2-1,1,1v35l4,2,14-13,2,1v3l-3,4v18l-2,2v21l-7,2-3-3h-3l-4,3-7,2-11,8h-5v1l5,1,5,4,5,1-2-3,4-1,3-4h4l2,2h2l4-3,12-1,9-4,2,2,7,2,5,7,5,2-4,4-16,1-8,4h-16l-2-2-2,1-1,8h9l1,1-1,8-4,6v42l-1,1-4-1-10-6-13-3-2-3,1-4v-23l-10,4v14l1,2-4,2-3,5-14,7-20,15-11,3-23,13-10,3-14,8-9,2-5,4-14,7h-3l-10,4h-2l-5-6-2-8-4-3-2-6-2-2-2-5v-12l-3-4-1-9-5-10-8,1,5,12,1,8,3,5v11l2,3v5l3,2,5,9v2l3,4v3l2,1-1,4,5,6v2l6,2,34,26,43,21,20,13,17,6,12,7,23,10,2,2,53,26,37,15,9,6,21,7,4,4,12,7,8,2,13,8h4l4,3,6,1,3,3,4,1,10,6,5,1,10,6,6,1,4,3,12-2,15-7h6l19-11h4l12-6,10-3,6-3,7-6,32-11,31-15,9-6,16-7,15-5,18-4,48-18,17-3,17-6,7-1,19-8,21-13,15-7,6-5,22-9,4-6,12-3,3-3,6-2,12-8h5l3-3,5-1,12-8,2-5-1-19,3-6-1-2v-22l2-2-1-74,2-2v-11l2-5v-29l2-4v-12l2-5v-17l2-3v-32l-8,1v30l-2,3v17l-2,5v12l-2,3v26l1,2-3,7,1,7-3,4v7l1,1v66l-2,3,1,25-2,3v23l-3,3h-3l-1-1,1-19,2-2v-6l2-2v-71l-1-1v-7l3-6-1-1v-41l2-3v-12l2-2-1-63-2-2-1-4-5-3h-13l-5-4v-3l-7-2-5-4-6-2-6-5-5-2-4-4h-4l-7-4-6,1-4-4-27,12-4,8,3,5v25l2,4v4l7,5v22l-2,2v16l-2,11v20l-9,5-8-1-2,2-12,5-19,14v45l2,3h5l10,5,8,9v14l-2,2-32-11-5-4h-3l-4-4-6-2-4-6,4-4v-2l6-8v-6l2-2v-11l-2-2h-20l-4-2v-2l2-1v-6l9-14,1-7,15,3h23l2-2,1-3-1-8-2-2v-6l-3-4-7-2h-13l-15,11-3-17,10-11,6,4,7,1,10,4,11-1,4-5v-12l-1-5-2-2-8-3h-10l-5,2h-4l-10,6-5-1-3,3,2,6-5,5-8-8,1-6-3-2-2,1-26-1-10,4-10,15v6l2,2h12l14-5,9-7,5-2,6,5v4l4,4-3,15-6-1-10,3h-6l-13,5h-8l-3,2-1,10,3,3h15l1,1,16-1,3,4v12l-1,1-15-1-4-2-5,1-5,5-1,4-2,2v8l-2,1-8-4-4-5v-5l2-1v-51l-3-4v-15l-9-5-11-3-6-5h-5l-5-4-15-6-6-6-8-3-2-3h-5l-13-8h-4l-4-3h-3l-2-2v-7l2-2v-3l-9-6-12-5-4-3-10-3-4-3h-3l-4-3h-6l-7-3v-25l-8,3v14l-1,1h-5l-5,2-1-1v-13h-8v17l-6,4-1,6h-4l-6,4-13,3-8,4h-4l-3,2-2-1-2-3v-5l-2-2v-9l-2-2v-6l-4-10v-6l12-3h10l9-5,15-4,1-4-1,1h-12l-9,3-11,1-7,3h-12l-4,2h-6l-9,4-23,4-3,3h-5l-1,2-9,2v2l2,2v32l2,3-1,9,2,5-8,4-12,2-3,2-3-1v-25l-2-2h-21l-7,3-12,1-4,2-2-1v-10l-2-3v-4l20-3,2-2,1-6,7-1,5-4v-17l-2-3v-11l-7-2-7,2h-7l-4,3h-7l-6,4v2l-2,2-1,26-6,3-13,1-7,2-1-1v-20l-3-6h-9l-10,6h-5l-4,3h-4l-4,3h-4l-3,2h-5l-14,5h-6l-16,5h-7l-6,3-13,1-10,5-18,5-4,3-1,3ZM1280,758l10,4h3l2,2h4l5,3h9l2,2h14l3,2h5l5-4,5,1,4,6v7l-2,2v7l-2,2v5l-5,7,1,10-3,4v6l-2,4v14l-1,1-6-1-6-4h-4l-4-4h-4l-5-4-13-4-4-3-6-1-4-5-7-2,1-2v-22l3-2,1-3v-27l1-1ZM954,757l4-1,1,2-4,1-1-2ZM939,755l7-1,3,1,1,2-1,1-9-1-1-2ZM929,739v-3l2-2,3-8,7-5h20l3,3h23l1,1-1,11-6,5-4-1-3,5-5,3-30-1-10-8ZM1165,724l4-6,14,1,4,2h4l5,4h5l4,2h13l1,1-1,8-3,6-11,11-13,7h-9l-11-6-6-8v-22ZM1255,713l3-1,15,5h6l16,5,10,1,9,4,3,3,4,1,3,3,5,1,4,3v22l-1,1-24-1-2-2-20-6-2-2h-5l-2-2-5-1-6-4-11-5v-25ZM971,711h24l1-1,3,1v16l2,2v9l-3,4-3,1-2-1,2-4v-19l-6-3h-9l-3-2h-6l-1-1,1-2ZM818,699l1,1-1,2v50l-4,3h-8l-8,3h-6l-6,3h-3l-1-1v-51l6-5h6l6-3,18-2ZM1196,692l2-1,1,3-2,1-1-3ZM1262,702l8-6,7-1,7-4,10-1,7-5h5l8,8h3l4,3h4l6,4,8,1,2,2,8,2,3,4,11,3,1,2-7,5-11,2-5,4-7,3-5-1-8-6-4-1-2-2h-3l-2-2-14-2-16-5-9-1-8-3-1-3ZM1193,683l-1,2-4,2h-14l-1-1,1-2,15-3h2l2,2ZM982,702v-8l3-8,2-2v-4l1-1h13l2,2v4l4,3,3,7-4,3h-3l-3-3-5,1-1,5-2,2h-9l-1-1ZM1222,678l9-7h8l5,2,1,8-1,1h-15l-5-1-2-3ZM600,823l2-2,16-5,13-8,6-1,18-10,8-2,23-13,12-3,21-16,12-6,3,2h9l4,3,2-1,8,2,5,4,7,3,6,6,5-1,3-5,5-1,5-3h6l7-3h9l12-5h10l6,3h3l1,3,3,2h13l5-5v-23l2-2v-22l-2-2v-9l-2-2v-2l31-16,8-1,8-6,19-7h10l4-3h3l3,2-1,10-3,6v16l4,6,7,3h4l3,3-1,1h-28l-5,5-5,2-1,6-4,6v11l11,11-1,1h-15l-9,11v2l4,3,3-1,6-7,23,2,1,3-4,4v12l2,3,1,8,3,2,3-1,1-2v-9l-2-3v-6l6-4,9-1,2,2-1,15,3,4,5-2v-17l1-1h13l8,12,1,7,7,7,5-1,1-5-5-5-4-12-5-7v-2l-3-2h-12l-1-2,5-3,8-1,3-2h9l6,5,5-2v-4l-7-7-3-1,4-6v-16l-3-3v-15l7-4,9-8,3-1,4-6h3l19,10,14,3,6,5h3l6,3,4-1,2,1,1,39,3,2,3-1,2,2h8l5-4,9-4h4l6-5,6-1,4-2,2-3h2l16,9v8l2,5,11,10,8,3h17l7-3,3-3,4-1,5,6,7,3,4,5h3l6,3h5l2,2,6,1,3,2h4l7,5h5l1,1v17l1,1v2l-3,4,1,8,6,4h3l4,4,8,3,3,3h4l3,2,6,1,13,8h3l2,2,9,3,2,2v2l-2,2-15,5-4,4-7,4-8,3-19,12-13,6-30,10h-4l-23,6-36,14-36,10-12,5-17,10-23,11-38,14-9,7-12,4-12,6-6,1-18,10h-5l-16,7-4-3-15-1-4-3h-3l-3-3-7-1-13-8h-4l-4-4-3-1-3,1-3-3-23-10-6-6-24-8-6-5-5-1-7-4-23-9-31-16-21-9-12-7-7-2-23-13-13-4-26-16-4-1-34-18h-2l-32-24-2-3ZM932,923v30l2,2,10,4,3,4,17,8h6l7,4h31l7-2,5-4,10-2,9-9,5-3,5-6,5-3,3-4h2l2-2,2,1v4l2,2,24,1,1-4,3-4v-6l2-4,4-3v-27l-2-2h-3l-3,2h-20l-1-4-11-10-15-11-16-6h-28l-2-2h-10l-15,4-17,13-7,3-1,5-4,2-1,4-2,2v4l-7,11v6l-2,2ZM1074,907h16l1,1v15l-3,2-6,16h-7l-5-4-2-6v-18l2-2v-2l4-2ZM955,894l24-17,8-1,5,3v15l-2,2v3l-5,5v2l-2,2v4l5,2,5-4v-3l4-3v-4l3-5v-15l-1-1,1-3h23l8,2,10,5,11,8,10,10-1,4-5,7v11l2,3v3l-4,6-3,1-13,13h-2l-10,11-10,2-5,4-4,1h-25l-6-3-10-1-13-6-4-5-9-4v-22l2-3v-5l7-12,1-5,5-4v-3ZM1048,910l-2-2h-12l-5,4-9,4h-13l-6-3h-5l-2,2,1,5,10,4h16l12-5,3-3,11-1,1-5ZM1140,818l-13,6-27,21-7,14,1,20,4,7,11,12,6,2,4,3,30,8h18l12-9,4-1,12-13,8-13v-22l-6-6-2-6-26-19-10-4h-19ZM1141,826h16l6,2,22,16,10,13v16l-7,11-9,10-4,1-10,8h-15l-24-6-11-5-10-11-4-7v-14l4-8,15-13,21-13ZM1142,842l-15,14-3,7,7,10,10,4,8,6h5l20-17v-9l-6-5-11-4-6-6h-9ZM1134,860l6-6,7-2,15,6,3,3v2l-9,9-5,2-4-3-10-4-3-3v-4ZM738,813v5l-4,8v24l3,7,3,3,10,4,9,9,21,14,12,5,8,6h6l5,3,28,2,1,1h64l6-1,12-5,21-22,6-11v-7l2-3v-11l2-4v-22l-17-15-10-5-6-1-19-13-15-5-9-5-42-1-17,7-13,1-23,5-17,6-13,8-14,13ZM746,816l10-9,13-8,14-5,16-4,26-3,2-2,8-2,3-2,36,1,10,6h5l8,3,19,13,8,2,13,8,9,9v12l-3,9v9l-2,3v8l-6,9-19,19-11,4h-65l-1-1-21-1-5-1-5-3h-5l-6-5-11-4-21-14-9-9-13-7-2-6v-9l1-1v-7l2-3,2-9ZM1134,658l1,6,2,3v34l-2,3v22l-2,2-8,2-5,4-7,2-12,7-6,1-1-1v-46l-2-2v-21l2-2,14-4,6-4,7-1,6-4,7-1ZM1027,671v5l-5,6-1,4-4,3-2-1v-4l-4-4-2-5-5-4-22,1-3,3v6l-5,12v9l-1,1-14-3-3-4v-22l12-11,14-5,2-2,7,2h12l10,2,5,4,5,1,4,6ZM1180,641l-3,4-10,5-5-1v-2l4-5,6-2h7l1,1ZM1229,639l2-2,7-2h9l4,2v9l-6,1-10-4h-3l-3-2v-2ZM797,629l8,1,8,6,5,1,5,6v3h3l34,14v13l-2,2v28l2,3v51l-1,1h-5l-4-5-9-2-4-3-6-2-5-9v-47l-1-1,1-5-7-5-5-6-11-5h-8l-1-1v-6l2-1v-23l1-1,3,1-4-5,1-3ZM985,618l4-1,5,4h3l4,3h3l6,5h4l4,3h3l6,5h3l4,3,5,6,7,3,4,5,18,7,9,8,7,3v25l-5,1-10-5h-6l-14-5-5-4-9-4v-14l-2-2v-2l-8-6h-4l-6-4h-6l-4-2h-13l-4-2h-5l-1-1v-15l3-3v-11ZM977,618v8l-2,2v23l-1,1-10,1-4,3-4-2h-2l-2,2h-8l-7,4-8,1-6,3h-4l-16,8h-4l-2,2-11,2-6,3-6,6-3,1-3-1v-27l2-2h5l3-2h3l19-11h4l10-5,7-1,10-4,6-5,9-1,27-10,4,1ZM1310,608l7,2,10,6,14,4,11,7h7l14-7,2,1,1,60-2,3v22l-1,1-14-5-23-12-9-1-2-2-6-2-9-9-4-1,1-2-1-22,1-1v-15l2-3v-23l1-1ZM1315,617l-1,2v48l1,4,6,3,4,4,13,5h16l2-2,1-4v-43l-4-3h-4l-5-2-8-6h-4l-3-3-3-1-2,1-6-3h-3ZM1323,627l5,3h3l5,5,13,5v22l1,3-2,6-3,4h-6l-8-3-3-4h-2l-4-3v-37l1-1ZM995,609l14-7h5l10-5,11-2,1,2-2,2v4l2,2,8,1,6,4h4l2,2,6,2,3,3,15,6,6,6,14,5,6,5,5,1,12,7h4l2,3-4,1-6,4-8,1-5,4-10,4-10,2-11-11-18-7-6-6-6-2-5-6-7-5h-3l-6-5-9-3-7-5h-4l-2-2-6-2-1-3ZM1390,588l2,2v8l1,1v46l-2,3v12l-2,2v36l1,1v8l-2,4v74l1,3-2,2-1,6-2,2v27l-4,4h-3l-4,3-4,1-6,5-6,2-3,3-7,2-1-1v-16l2-7,2-2v-8l3-4,4-19,2-2v-17l-3-3v-2l-5-4h-9l-1-1v-24l7-6h4l17-7,11-9,2-5v-22l2-3-1-74-2-2-7,1-6,6-8,3-1-1v-17l7-1,5-4,9-2,7-4h3ZM918,587l2-1,1,2-2,1-1-2ZM807,586l1,1v13l-4,4-9,1-12,11-3,1-1-1v-22l2-2v-2l13-4h13ZM1299,572l1-1,4,1,3,3,15,7,9,7,20,9v17l-2,1-4-2-2-3-17-6-6-4-1-3-5-3-13-3-1-1-1-19ZM757,566l1,6,2,3,1,13-20,4-1-1v-12l-2-4v-5l2-2,17-2ZM1032,586l-1,2-8,1-10,5h-6l-22,11-4-2-3,1-3,4-18,7-6,1-6,3h-6l-6,2-6,5h-5l-3,3-9,2-7,4-7,1-19,11h-6l-9,4-6-1-7-4-7-2-2-2v-3l-10-8-12-2-11-7,1-2,4-1,2-3h2l4-3,6-2h6l11-5h2l4,4,2-1,1,5,2,2,12-1,9-4h9l2-2-1-5-3-1,1-3,5-3,18-5,4-3,8-1,1,1-1,6,2,2h8l7-2,5-3h3l2-3h2l3-3-2-5-6-1,1-2h3l6-4h5l3-3h3l4-3v-3l4-3h2l5,5h5l8,4,8,1,16,9,5-1,12,6ZM1302,561l9-5,10-2,3,4,2-2h4l2,2,12,5,18,12,4,1,4,3,6,1,2,3-16,6-2,2h-3l-3-2-6-1-3-3-4-1-3-4-8-2-7-4-6-6h-5l-4-3-4-1-2-3ZM723,544l1,1v9l-1,1v62l2,3v7l2,2,1,5-20,5-3,2-19,6-17,3-7,4-14,4-5,4-17,7-10,2-5,3h-5l-2-3-1-7-2-4v-7l-2-3v-12l-2-2v-14l-2-3v-10l-2-4v-23l7-4,11-2,9-5,12-1,7-3,10-1,12-4h6l14-5,14-2,3-3h5l4-3h4l4-3,8-2ZM702,602l-3-2h-4l-7,2-4,3h-7l-2,2-22,1-23,10h-8l-2,2v4l3,2h8l23-10,32-3,4-3,10-2,2-2v-4ZM698,573l-4-2-2,1-1,3-4,4h-13l-13,12h-7l-2-2h-9l-5-2h-5l-6,6-2,4v6l2,2h3l5-9h6l7,2h18l3-4,4-1,5-6h12l4-3,4-5v-6ZM893,538l5,16v8l2,3v7l1,3,2,1,1,7-7,4-12,2-8,5-27,7-1-1v-20l-2-2v-28l1-1h7l9-5h6l12-3,6-3h5ZM790,526l1,7,3,5-1,7-9,4h-4l-9,4h-4l-1-1,1-20,2-2h8l9-4h4ZM960,515l-3,12,2,4h7l1-4h-6l-2-3v-3l4-5-3-1ZM987,508l-8,7v12l8-3v-16ZM671,463l-11-6h-6l-15,6-40,10-14,8-12,3-13,6h-7l-10,5-24,6-7,8,4,6,1,4,4,4v7l2,2v4l4,7,4,36,8,1v-9l-2-4v-14l-2-5-1-10-3-5v-6l-2-2v-5l-5-6-2-4,1-2,18-4,12-4,2-2h8l6-4,18-5,14-8,9-3,34-8,12-5h9l6-2ZM965,451l-2-2-5-1-5-5-27,1-9,5h-5l-10,5-7,1-5,4h-6l-6,3h-6l-2,3h-4l-9,3-10,5h-5l-10,6h-5l-7,5-8,2-5,3h-3l-3,4-1,5,2,3h5l2,2h3l4,3,11,3,2,2h9l4-3,9-2,5-3,17-4,9-4,18-5,3-3,8-4,16-2,7-4,5-1,10-6,9-2,7-5v-12ZM957,457l-1,3-18,5-10,7-21,4-5,3h-3l-6,5-6,1-25,9-14,3-2,2-8,2-2,2-8-3h-5l-2-2h-3l-3-3,1-2,6-1,8-5h4l5-4,5-2,10-2,4-3,9-3h6l3-3,6-1,6-3h6l2-2,6-1,8-5,9-1,11-5,18-1,9,6ZM1110,428l5,1,5,3h4l22,7h7l12,4,16,1,3,2,6,1,2,2h7l21,5,10,5,20,4,7,4,11,1,20,8,18,5,7,4,20,5,5,3h5l5,3,7,1,6,3,9,1,7,4h4l5,4h6l6,2,4,3,6,1,5,3v6l-2,2v19l8-5v-11l2-3v-5l2-3v-7l-1-1-15-3-7-4-10-2-4-3-7-1-8-4-8-1-18-7h-5l-5-3-17-4-10-5-7-1-31-12-11-1-7-4-16-3-10-4-2-2h-6l-11-4-11-2-2-2-29-5-10-4-13-2-13-6-5-1-7,3-7,5ZM1111,416l-7,1-10-4-22-5-16-6-11-2-18-7-10-2-26-10-29-1-4,1-4,3-15,3-38,13-15,4-12,1-26,10-15,2-8,3-27,6-15,1-9,4-24,3-18,6-12,1-12,5-10,1-14,5-10,2,6,2,5,4,14-5,11-1,12-5,11-1,18-6,30-4,7-4h10l25-5,15-5,15-2,26-10,13-1,59-19h6l6-4h4l2,2,2,6v11l2,6v20l4,10v19l2,9v31l8-6v-26l-2-9v-19l-4-10v-20l-2-6v-11l-2-5,1-3,8,1,51,18,14,3,23,8,15,3,8,3,7-2,7-5Z"/>
  <path id="black-ink" class="st2" d="M409,787l-3-6h-18l-8,4-5,5h-4l-6-3h-5l-11,6-6,6-5-16-2-3-5-1-2,2-1,4-6-1-2,2v10l-6,9-1,5-11,8h-4l-4-3,1-7,4-8-1-4-4-1-2,1-4,8-2,7v7l-5,4-6,3-7,1h-14l-7-2-2-2v-2l8-8,14-6h10l2-2v-3l-4-3h-9l-19,8-9,9-1,11,5,5,12,3h13l12-2,12-8,4,2h9l16-12,1-5,6-9,2-13,3,3,1,7,2,4v12l4,2v3l2,3h16l3-4,7-1,4-3h2l4,3h27l2-2v-4l-2-2h-12l-1-2,12-4,5-3,1-12ZM368,798l2,4-1,4-18,7-7-1,3-5,8-8,7-4h2l4,3ZM380,800v-4l9-7h11l1,1v2l-7,5-7,1-5,3-2-1ZM427,741l-13-1-4,3-4,1-4,7v11l2,2,4,1,1,3-1,1h-20l-4,3,2,5h28l3-2,2-5v-4l-3-5-6-5v-3l6-5h10l2-3-1-4ZM329,753l-2-3h-4l-5,6-2,5h-2l-1-3-3-2-11,1-1-5,4-7,1-6-3-4h-2l-3,2v4l-4,9-3,1-3-3-4,1-4,11-7,6-3-1-5-15-2-1-4,1-1,6,3,10,3,6,3,2,12-1,7-7h2l2,3,3,1,1,7h15l5-3h3l3,2,4-2,2-10,6-11ZM307,765v2l-3,2h-10l-1-1,3-3,6-1,5,1ZM330,735l1,4,2,1h7l2-2v-4l-2-2h-7l-3,3ZM392,729l-3,4v8l-2,4v5l3,3h2l2-2,3-9v-12l-5-1ZM393,719l-6-1-17,15-14,15-3-1v-4l5-9v-3l-2-2h-4l-6,10-1,8-4,6-3,12,2,2h4l5-5,7-4,7,8,4-1,1-5-3-4-1-4,29-29v-4ZM252,718h-12l-17,5-10,5-3,5v4l2,3h4l4-6,2-1,2,1v7l2,5,1,16,1,1v16l2,3h4l2-2v-18l-1-1,1-2,2,1,13,17h4l2-2-2-8-8-8-4-6,1-3,5-1,6-7,3-8v-10l-2-4-4-2ZM248,726l2,2v3l-3,7-4,4-9,2-3-13,7-4,10-1ZM775,686l-4-1-7,4-5,1-8-5-5-1-3-5h-6l-2,3v4l3,3,10,4-1,2-36,12-60,15h-4l-9,3h-4l-9,3h-4l-93,22-14,5-26,14-23,7-2,5,4,3,17-5,16-7,11-7,25-9,50-12,13-2,9-3h4l9-3,13-2,9-3h4l72-18,37-13,1,3-4,5-5,2-5,4-12,5-1,3,1,2,5,1,10-4,12-7,5-7,6-5v-6l7-5-1-5ZM1710,645l-3,2v29l2,4h4l2-2v-29l-1-3-4-1ZM1782,651l-1,11-2,3,1,3,2,1,4,6,10,4h5l10,3h7l2-2,1-3-3-3h-6l-20-5-1-2,22-9,9-9-1-5-3-1h-22l-14,8ZM1803,652l-1,2-7,3-3-1,1-2,5-3,5,1ZM1730,644l-1,1v29l1,2,5,1,2-2,1-14,4-4,1-5,4-1,4,4-2,26,2,2h4l2-2v-9l2-7-1-15-5-6-3-1h-9l-3,2-8-1ZM1662,646l-4-3-12,3-13,13v2l-6,10-2-1v-17l-1-2-4-3h-9l-9,5-6,6-1,4-2,2v10l2,2,6,2h12l5-2,6,3,7-1,4,3,10,1,2-2v-3l-4-4h-5l-1-4,3-3v-3l4-3,3-5,6-4,7-1,2-2v-3ZM1616,656l1,4-2,2v4l-5,5h-8l-1-3,2-4,6-6,7-2ZM1668,638l-3,10v17l-2,2v6l-2,2,1,7,5,1,2-2,3-8,8-10h8l2,2v20l3,2,3-1,2-2-1-26-6-3h-15l-2,1-1-7,2-9-2-3-5,1ZM1544,632l-2,7v16l-2,11v15l1,2,5,1,2-2v-15l2-12,1-1,2,1,4,9h5l2-2,2-8,3-2,2,4,2,14,3,9,3,5h4l2-2v-5l-4-9-2-15-8-19-3-2-5,1-2,11-3,3-6-14-3-2-5,1ZM1702,631v4l2,2h10l2-2v-4l-2-2h-10l-2,2ZM1722,593l-2-2h-7l-15,4-5,3-5,5v11l4,5h20l4-4h2l3,6,6,1,2-2v-3l-3-3-2-6v-11l-2-2v-2ZM1713,601l-3,8-2,2h-11l-1-1v-4l4-3,9-3,4,1ZM1686,584h-15l-18,11-9,10,1,17,6,5,5,2h16l2-2v-5l-19-2-3-3v-9l8-8,13-8h10l5,2,3-3v-3l-5-4ZM1649,582l-10-1-8,3-7-1-2,2v25l1,1v11l2,2h3l3-4-1-5v-19l4-5,9-2,3,3,5-1,1-5-3-4ZM1582,578l-7,8-5,11v16l3,12,5,1,2-2v-7l-2-6,1-3h6l3-2h4l4-2,6,1v15l3,4h4l2-2-1-19-1-1-1-15-3-7-4-3h-17l-2,1ZM1599,587l1,6-2,2-17,5-2-1,4-9,5-5h9l2,2ZM1741,612v7l2,2h29l5-4,1-9,3-6,3-1,1,1-1,5,3,3,9-1,17,10h19l2-2v-4l-3-2h-15l-7-5,13-13v-7l-4-5-6-2h-14l-5,3-6,7-3,1-1-1v-17l-2-5h-5l-1,2v20l-1,1-10-1-10,6-13,17ZM1773,599l-5,14h-15l-1-1,4-7,7-6,4-2h4l2,2ZM1792,597v-2l8-8h11l2,2-2,4-3,1-3,4-5,2h-3l-5-3ZM437,553l1,3,4,2,12,3,28,14,21,5,8,4h7l15,5h9l1,2-6,2-2,3,4,4,12-1,8-4h12l3-5-1-1,1-6-3-4-7-3h-4l-10-6h-6l-2,2v4l5,4-1,2-12-1-16-5h-5l-5-3-19-4-34-16-11-1-4-2-3,3ZM1375,573l4,3,54-2,2-2v-3l-2-2h-31l-3,1-1-2,24-18,23-5,97,1,5,2h5l3,2,17,5,8,8,4,7h4l2-2v-7l-13-13-20-6-2-2h-7l-5-2-98-1-27,6-9,7-4,1-8,8h-3l-3,3-4,1-2-1-1-4v-9l-5-1-2,2v14l-2,4v7ZM954,499l-1,9-4,13v17l1,1h21l16-6,9-1,6-2,2-2v-5l-5-1-28,9-14,1-1-7,5-17v-7l-3-3-4,1ZM257,471l-3,3-1,24,2,3,1,7,5,1,2-2v-9l-2-2,1-20-5-5ZM260,457l-5-2-7,6v4l6,1,6-5v-4ZM222,455l-4,2-1,8-2,3-1,48,5,1,3-4v-5l2-5v-8l6-7,2,1v9l-1,1,1,11,6,1,5-3,5-6v-3l-2-2-5,1-2-1,1-16-3-6-4-1-8,6-2-1,2-22-3-2ZM480,446l-4-2-6,6v28l-1,1h-10l-5-5h-14l-5,2-3-3h-4l-4,3v5l-2,1-3-6h-3l-3-2-5,1-1-2-2,3-4,1-4,3h-2l-6-6-14,1-16,5-6-5-12-2,1-7,5-6v-5l-6-1-6,8-4,12-4,2-2,4-2-1v-7l-4-5-2-1h-13l-10,6-1,11-4,2v2l-5,4-6,1-1-1v-7l7-21,7-1,4-3v-3l-2-2h-8l-1-5-4-2-3,2-2,4-9-1-3,4,2,4h5l6,2-5,17-4,7v11l5,3,5,1,12-3,4-3,3,2,9,2,7,4,6,1,32-1,5-4h2l1,4,4,3h10l8-5h7l4,2h9l9-7,1,1v8l2,2,4,1,3-1,2-3,5-1,1-11,5-6,3-2h6l3-2h7l1,2-4,3v2l-3,4v16l4,3h19l4-3v-4l5-11,1-40,2-3v-5ZM401,489l1,2-4,4h-2l-1-2,6-4ZM468,487l1,5-2,2-2,10-1,1h-10l-1-1v-9l2-3,6-5h7ZM401,487l2-1,1,2-2,1-1-2ZM323,485l-4,10h-5l-4-3,1-2,7-3,3-3,2,1ZM387,483v3l-4,2-2,5-11,5-4-1v-5l3-4,12-6,6,1ZM329,496l2-7,6-7h11l6,6v2l-7,5h-9l-5,2-4-1ZM301,483v-5l4-4h8l2,2v2l-3,3-7,3-4-1ZM208,437l-2-1-4,1-12,28-3,14-2,3v4l-4,8-1,7-2,2-2-1v-4l-2-3-3-12-3-5,9-26-1-7-2-1-4,1-6,17-3-1-1-5-4-8-4-1-3,3,3,7v3l7,15-2,11-5,12-1,7-3-2-7-11-3-8-12-22-1-5-4-3-4,1-1,4,6,11,1,5,5,7,8,18,3,3,7,14,4,5h5l2-2,5-25,2-2,2,1,2,5v4l7,15,6,1,3-3,5-20,6-14v-4l4-13,10-22-1-6ZM621,429v4l14,11,40,20,4,4,6,1,11,7h3l6,4,9,3,4,4h3l4-3,21,11h5l7,5h3l8,5,21,9,3,3,7,1,8,5,10,4h5l10,8v2l-1,1h-12l-2,2v4l2,2h13l6-3,7-1,1-2v-6l-2-3v-10l-2-2h-4l-2,6-2,1-9-7h-6l-8-3-5-4-9-2-14-8-11-4-7-5-6-1-6-5h-5l-17-9h-2l-5-4-3-1-10,1-5-2-5-4h-3l-9-6-6-1-4-4h-2l-8-5-14-6-5-4-10-4-15-11h-3l-2,2ZM1236,356l-4-2-23,8-18,11-21,10-3,4-15,7-20,13-19,8-9,7-4,1-10,9-27,16-7,7-12,4-6,6-9,3-6,6-7,2-10,8-6,2-3,4h-2l-7,7-12,8-8,9h-2l-6,7,1,5,5,1,2-1,9-9,3-5,15-10,4-5,4-1,3-4,4-1,10-8,9-3,6-6,7-2,6-6,14-5,5-6,10-5,6-5,14-8,7-7,7-3,6-5,17-7,22-14,15-7,5-5,15-7,14-9,15-7,15-4,2-3-1-3ZM623,383l1,8,5,1,10-13,8-7,1,1-1,2v13l4,4h4l2-2v-16l2-4,10-8,2,3v16l-2,2,1,5,2,1,5-1,2,4h4l5-4h4l9,10h9l1-6-5-1-5-6v-2l12-6,3-5v-11l-2-2h-10l-5,4-7,3-3,6v6l-9,6-1-1v-20l-5-9-5-3-3,1-5,6-5,3-3-2h-5l-6,5-3-3h-5l-6,8-5,14ZM708,369l-4,4-5,2-2-1,1-2,7-4,3,1ZM467,347l-1,17-3,7-1,22-1,1v6l6,8h5l2-2h24l3,5h4l4,2h14l4-2,5-5,3-7,2-1,2,5,10,8h12l9-8,5-8v-6l2-4v-10l-3-2-5,3v8l-2,4v5l-9,10h-4l-8-5,2-18-3-3h-3l-3,3v17l-1,1-2-1v-17l-5-1-4-3h-6l-3,2h-9l-5,4-1,5-4-4-10-4-4-3h-5l-6,3-1-1v-8l2-6-1-4,1-13-3-3-4,1-1,2ZM513,386h11l4,4v7l-3,5-4,3h-10l-4-2,2-4,1-8,3-5ZM471,394l10-10,8,3,4,3v7l-1,1h-20l-1-4ZM436,338l-5,3-6,12v5l-4,17v24l2,3h4l2-2v-17l1-1h4l13-5,2,11v15l2,3h4l2-2v-18l-1-1-1-17-4-19-2-5-4-5-9-1ZM440,347l3,5,3,16-14,5-1-7,2-6v-5l4-7,3-1ZM612,337h-3l-3,3-12,19-14-1-2,2v3l4,5,7,2-7,32-5,8,2,4,19-1,12-12v-4l-3-3-5,1-7,7-3-1v-4l5-14v-8l-1-1,2-4h10l3,2h6l4-4-1-3-17-4,1-4,10-14,1-3-3-3ZM1357,327l-4-1-3,2v4l2,3v21l-2,2h-15l-2,2v3l2,2h19l6-7v-26l-3-5ZM1288,336l1,15,2,3h4l2-2v-7l2-2v-5l3-4h10l1,1v17l2,2h19l6-4,5-8v-8l-3-5-2-1-6,1-6-1-4,3h-2l-2-4-2-1-21-1-7,7-2,4ZM1337,338l-2,5-5,4h-8l-1-1,1-6,4-1,6-4h2l3,3ZM1470,323l-4-2h-13l-7,2-5-4,1-3-1-5h-5l-6,6h-9l-2,2v4l4,3v2l-4,7-4,4v4l-2,1-12-2v-5l11-11v-2l-2-2h-5l-11,10-2,9-6,1-3-3,7-7v-12l-3-2h-8l-7,3-2,4-5,5v13l7,5,10,2,32,1,2,4,5,3h12l1,1,15-1,9-2,6-4-1-13-7-5h-4l-1-3,3-2h8l3,2h3l2-2v-6ZM1423,343l10-16,3-1,7,4v8l5,4h6l2,2v3l-7,3h-10l-1,1-2-1h-12l-1-7ZM1377,329l3-3,2,1-2,3-3-1ZM382,313v3l2,2,144-1,1,1h27l14,3h15l2,2h19l2-2v-4l-3-2-31-1-5-2h-6l-7-2h-27l-1-1h-118l-1,1h-23l-4,3ZM1366,309l-3-2-5,2-4,4v3l2,2h6l4-5v-4ZM698,307l2,2h51l3-4-3-4h-50l-2,1-1,5ZM1573,289l-2-2h-61l-8-2h-26l-29,5h-68l-8,2-37,1-9,2-42,1-1,1-30,2-1,1h-41l-1,1-336-1-13-2h-56l-2,2v4l2,2,238,1,13,2h153l11-2h31l1,1-1,2-8,2-8,6-1,8,2,3h4l2-2v-3l3-3,2,1,3,13,2,19,4,6h4l2-2v-3l-2-3-1-12,17-4,9-8-1-15-2-3-6-3,1-2,17-1,1-1h30l9-2,38-1,7-2h69l28-5h27l8,2h61l2-2v-4ZM1275,318l1,6-5,4-13,3-2-1-2-8,1-5h4l5-2h7l4,3Z"/>
  <path id="red-ink" class="st1" d="M583,265h-3l-2,2-1,6,2,9v14l-3,1-2,3h-10l-2,2v3l2,2h15l3-4,4-1,1-2v-19l-2-6v-8l-2-2ZM688,261l-6,1-1,9-2,3v5l-6,8h-6l-6-7v-18l-4-2-3,2-1,2v19l5,8,6,4h11l5-3,1,4-4,10-5,5v3l-7,8-8,1-4,3h-8l-4-3-5,1-1,4,7,6h12l6-3h6l11-9,3-5v-3l5-6,4-11v-35l-1-1ZM636,261l-11-1-3,2h-3l-9,8-4,6v3l-3,3v9l8,10h19l13-9,1-19-8-12ZM630,268l6,8v11l-8,6h-12l-5-5,2-3v-5l11-12h6ZM549,257l-4,3-5,12-7,8-3,6v7l2,2h3l2-2v-2l5-5v-3l8-7,3-1,1,6-3,7v9l1,2,3,1,4-3v-9l3-9v-10l-4-5h-4l-1-5-4-2ZM778,256h-4l-2,2v15l-4,3-3,5h-11l-4-3v-18l-3-3-4,1-1,2v21l9,8h17l10-10,5,11v15l-9,10h-10l-3,2-4-2-4,1-1,2,1,4,5,3h5l3-2h11l8-7,5-7,1-20-5-13v-6l-3-3-1-6-4-5ZM579,251h-3l-3,5,1,3,3,2,3-1,1-2v-5l-2-2ZM861,248l-2,2v19l4,6v4l5,6,3,1h6l9-4,4-7,1-6,3-2,1-6-1-8-2-2h-3l-2,2v9l-5,8-1,5-7,3-3-3-1-5-4-6v-15l-5-1ZM809,248l-7,6-4,7v22l4,4h5l3,2h20l12-10,1-6,2-3v-10l-3-6-8-6h-25ZM806,264l3-6,3-2h19l4,3,2,4v5l-2,2v4l-8,7h-15l-2-2-4-1v-14ZM1083,245l-12,1-5,4-10,4-4,3-9-6h-5l-2,2v4l2,2h2l1,2-11,10-1,4,5,3,6-4,4-5,4-3h2l12,12,4-1,1-7-7-8,16-9h6l3-4-2-4ZM1006,245l-3,3h-2l-6,8v9l-4,3-1,4,9,9h4l8,3h13l2-2v-4l-2-2h-12l-9-4,6-6,7-3,8-8v-8l-2-2h-16ZM1005,257l3-3,2,1-3,3-2-1ZM909,283l4,1,5-5v-18l3-1,4-6,14-1,4,1,3,3h5l2-2-1-4-8-6-21,1-5,3-4-4-5,1-1,2v9l2,3v13l-2,3,1,7ZM1130,245h-3l-3-2h-27l-5,4-2,4v5l-2,2v27l5,11h5l5-7,1-18,5-3h25l2-2v-15l-6-6ZM1104,252l1-1h17l7,5v3l-1,1-23,1-1-1v-8ZM1347,245v8l2,2v16l2,2,5-1,6-13,11-9,7,1,2,17,2,2h3l2-2v-20l-4-6h-13l-8,3-5,5-2-1v-4l-2-3h-4l-4,3ZM1182,242h-17l-7,7-5,3-6,7-7,1-1,3,1,3,7,1,1,7,5,4,8,1,3,2h9l2-2v-4l-2-2-15-2-2-3,1-1h13l13-4,3-3,2-5v-10l-6-3ZM1161,258l7-8h11l1,1v2l-3,4-7,2h-8l-1-1ZM1274,240l-4,1-3,3v28l4,3,4-4v-24l2-2v-2l-3-3ZM1235,244l-3-1-4,2-7,1-8,6-4-11-2-1-4,1-1,5,2,3v12l3,8,3,2h5l1-1v-8l7-8,10-1,3-4-1-5ZM1438,235l-2-1h-12l-3,3-6,2-11,8-10,10v5l-2,3v7l4,4h4l3,3h34l2-2,4-1,3-4-3-4-8,3h-28l-1-2-4-2v-6l6-7,11-8,4-1,4-3h9l3-4-1-3ZM1288,254l2,5h10l7,9,6,5h15l3,2h5l3-2,1-3-2-3h-5l-2-2h-15l-2-2,1-2,14-7,6-7-1-5-12-8h-8l-12,9-2,8h-9l-3,3ZM1324,245v2l-2,2h-2l-6,4-5-1v-4l8-6,7,3ZM527,232l-31,3-19,11-3,3v6l7,7-9,6-6,7-1,10,5,3,21,4h28l2-1,1-5-2-2h-29l-16-3-1-3,6-6,6-4,4-1,5-4,19-1,2-2v-4l-2-2-29-1-1-2,13-8,13-1,6-3h9l3-3-1-4ZM1455,243l-7,11v8l7,11,12,6h25l7-3,1-3-2-3-29,1-8-4-5-7,1-3,7-1,13-6,11-9v-10l-1-1-8-1-6,2-18,12ZM1271,228v4l2,2,10-1,4-2v-4l-2-2h-9l-5,3ZM1361,168v4l-2,3v11l9,5,5,1,31-1,4-3,4-1,8-12v-13l-1-2-9-5h-14l-2-2h-10l-12,6-11,9ZM1367,177l2-5,4-4,13-7h5l3,2h14l4,3v5l-2,2-2,6-2,2-8,3h-24l-3-3h-3l-1-4ZM982,127l4,7,4,4,13,9h46l6-1,17-7,10-7,15-16v-15l-5-7-22-13-26-6h-15l-24,8-13,8-5,6-4,11-1,19ZM990,125l1-16,2-6,7-8,16-8,18-5h4l6,4,5-2,17,4,20,12,3,3v10l-4,5-14,12-16,8-6,1h-43l-10-7-6-7ZM749,74l-2-1-11,1-32,8-7,3-5,4-7,2-13,7-5,25-6,14,1,9,7,3h59l1-1h7l9-3,2-3-2-4h-6l-3,2-7,1h-59l-1-3,4-8,3-11,47-1,3-4-3-4h-30l-1,1h-12l-2,1-1-2,2-7,10-5,5-1,11-7,19-4,12-4,11-1,3-5-1-2ZM823,69l-2-1-3,1-5,11-12,13-17,26-7,8-3,8-3,4,1,6,11,2h65l2-2v-3l-4-3h-63l-1-1,2-7,6-6,3-7,7-10,22-27,3-8-2-4ZM1233,69l-1,9-5,10v6l-5,7,1,43,5,2,6-2h17l30-5h10l21-3h13l2-2-1-5h-23l-1,1-36,3-15,3h-17l-2,1-2-8v-25l2-2h76l2,2h3l3-2v-4l-4-3h-76l-1-1v-4l3-5,2-9,4-3h50l2-1v-5l-3-2h-50l-4,2h-4l-2,2ZM956,66l-3-1-8,3-16,10-9,4-5,8-8,7-9,23v22l3,3,6,2,3,3,16,5h46l4-2,11-1,4-3,1-4-3-3-6,3-12,2h-43l-13-4-9-6v-16l7-19,8-6,2-5,3-3,14-7,5-4,12-5,1-4-2-2ZM1100,74v20l2,9v34l2,2h4l6-6,4-19,7-10,11-25,4-6,2-1,3,13v26l2,2h4l7-6,9-14,12-13,3,2,2,13,2,5v40l4,3,4-3v-40l-4-20-6-8-3-2-5,1-14,15-6,10-2,1-1-1v-11l-3-17-3-6-3-3h-3l-4,3-1,4-7,9-6,15-11,19-2-1-2-14v-20l-2-2h-4l-2,2ZM1349,52v4l5,3,2,10,18,43,10,21,7,11v3l3,2h3l5-3,1-2,27-12,9-7,7-3,25-22,13-14,9-6,1-2v-5l-3-3h-10l-27-5-26-2-18-6-34-2-15-3-3-2h-7l-2,2ZM1363,61l2-1,11,3,35,2,12,5,56,7,1,2-11,12-26,23-11,6-9,7-12,4-14,7-7-11v-2l-8-15-17-40-2-9ZM688,14l-2-2-5,1-1,6-3,4-10,22v3l-7,16-2,10-7,19-8,38v5l-8,15-3-2-1-10-4-12-6-10-10-22-8-9-14-23-11-13,2-10,12-22-1-4-4-1-5,4v3l-11,20-21-20-6-2h-5l-2,2v4l8,3,7,6,15,16,1,5-12,38-8,16-6,19-11,24-2-1,1-13-5-11-7-25-6-13-8-13-8-8-14-23-4-3h-4l-2,2,1,5,3,2,13,22,9,9,12,22,7,25,5,10-1,25,3,9,3,2,2-1,6-10,3-9,11-23,7-22,7-13,6-20,3-6,1-7,2-2,5,4,17,27,8,9,5,13,10,18,3,9,4,22,3,4h5l11-18,4-9,9-46,5-13,5-19,6-13v-3l7-13,1-5,5-6v-8Z"/>
  <path id="green-ink" class="st0" d="M343,955l1,4,5,3,2,22,2,6v7l2,5v4l-3,3,1,4,8,1,16-5h5l15-8,4-6v-14l-6-17-8-8-10-5-22-1-3-2h-2l-7,7ZM356,959l1-1h13l5,1,7,4,7,7,2,4,2,8-1,12-9,6-9,1-5,3h-5l-5-20-3-25ZM285,946l-3,3-1,38-3,19,3,3h34l3-3-1-4-2-1h-27l-1-1,2-13,1-38-1-2-4-1ZM504,946l-5-1-18,6-8,1-3,2-7-2-4,4-6,1-3,3,1,4,2,1,6-1,2,1v28l3,20,4,1,3-3-2-22,11-6,6-1,4-4-1-4-5-1-7,2-5,4h-2l-1-1v-16l8-3,24-5,4-4-1-4ZM518,944l-3,3v14l1,2,4,1,3-3v-14l-1-2-4-1ZM416,944l-3,3,1,16,1,2,4,1,3-3v-10l-2-8-4-1ZM323,944l-3,3v16l1,2,4,1,3-3v-16l-1-2-4-1ZM235,939l-5-1-18,6-8,1-3,2-7-2-4,4-6,1-3,3,1,4,2,1,6-1,2,1v28l3,20,4,1,3-3-2-22,11-6,6-1,4-4-1-4-5-1-7,2-5,4h-2l-1-1v-16l8-3,24-5,4-4-1-4ZM249,937l-3,3v14l1,2,4,1,3-3v-14l-1-2-4-1ZM449,911l-1,5,6,1v-5l-5-1ZM448,886l-1,5,6,1v-5l-5-1ZM374,885l-11,11-2,5v9l7,9,8,3h6l9-7,4-11v-7l-9-11-12-1ZM381,893l6,7-2,8-4,5h-7l-4-4-1-6,8-9,4-1ZM355,884h-2l-3,3-5,12v7l2,4,4,3h3l3-3-1-4-3-2,1-7,4-7v-3l-3-3ZM406,885l-3,3v8l1,1,1,16,2,4,2,1,4-1,1-2v-12l3-6,5-5,3-1,4,10v16l3,3,4-1,1-2v-17l-4-12-6-5h-6l-8,7-2-1-1-3-4-1ZM284,881l-3,3v14l8,10,7,1,5-4,3-6,2-14-3-3h-2l-3,3-2,11-3,3-4-4v-11l-1-2-4-1ZM355,874l-1,5,6,1v-5l-5-1ZM326,863l-3,3-2,5-6-1-3,3,1,4,3,1,1,2-6,14v10l2,4,5,4,7,2h8l3-3-1-4-12-2-4-3v-6l5-12,2-2,6,2,3-3-1-5-4-2,1-8-1-2-4-1ZM267,862l-3,3v28l5,17,7,2,2-1,1-4-1-4-1,1-2-1-3-12v-26l-1-2-4-1ZM194,864l-2,4,1,9,9,6,10,3,4,4v3l-6,5-11,1-5-3h-3l-3,3v2l3,4,6,2h10l7-2,8-5,3,4,8,4,12,1,5-3,5-7,1-12-4-7-6-4-11-3-12,12-6-6-7-3-7-1-2-2v-3l6-6,15-4,1-2-1-4-8-1-10,3-10,8ZM237,882l6,2,5,5v6l-6,6-7-1-5-4v-5l2-4,5-5Z"/>
</svg>