<svg preserveAspectRatio="none" width="100%" height="100%" overflow="visible" style="display: block;" viewBox="0 0 33.6168 33.6168" fill="none" xmlns="http://www.w3.org/2000/svg">
<g id="Frame 3">
<path id="Vector" d="M29.667 29.2026L20.3917 14.6258L29.544 4.55779C29.751 4.32446 29.8577 4.01895 29.8409 3.70749C29.8242 3.39603 29.6853 3.10372 29.4545 2.89395C29.2237 2.68417 28.9195 2.57383 28.6078 2.58685C28.2962 2.59987 28.0022 2.7352 27.7897 2.9635L19.0715 12.5529L13.0722 3.12501C12.9652 2.95662 12.8174 2.81796 12.6426 2.72187C12.4678 2.62578 12.2715 2.57536 12.072 2.5753H4.95997C4.74744 2.5752 4.53879 2.63224 4.35587 2.74045C4.17295 2.84866 4.02249 3.00406 3.92024 3.19038C3.818 3.3767 3.76772 3.58708 3.77469 3.7995C3.78166 4.01191 3.8456 4.21855 3.95984 4.39777L13.2352 18.9731L4.08282 29.0485C3.97594 29.1633 3.89291 29.2982 3.83855 29.4453C3.78418 29.5924 3.75956 29.7489 3.7661 29.9056C3.77265 30.0624 3.81024 30.2162 3.87669 30.3583C3.94314 30.5004 4.03713 30.6279 4.15321 30.7334C4.2693 30.8389 4.40516 30.9203 4.55294 30.9729C4.70072 31.0255 4.85746 31.0482 5.01409 31.0398C5.17072 31.0314 5.32412 30.9919 5.4654 30.9238C5.60668 30.8556 5.73303 30.7601 5.83713 30.6428L14.5553 21.0533L20.5547 30.4813C20.6625 30.6483 20.8106 30.7855 20.9854 30.8803C21.1602 30.975 21.356 31.0243 21.5548 31.0236H28.6669C28.8792 31.0235 29.0876 30.9664 29.2702 30.8583C29.4529 30.7501 29.6033 30.5949 29.7055 30.4088C29.8077 30.2228 29.858 30.0126 29.8512 29.8005C29.8445 29.5883 29.7808 29.3818 29.667 29.2026ZM22.2053 28.6529L7.11878 4.94599H11.4157L26.5081 28.6529H22.2053Z" fill="var(--fill-0, #464646)"/>
</g>
</svg>
