<svg preserveAspectRatio="none" width="100%" height="100%" overflow="visible" style="display: block;" viewBox="0 0 33.6168 33.6168" fill="none" xmlns="http://www.w3.org/2000/svg">
<g id="Frame 3">
<path id="Vector" d="M13.2523 13.2524C13.2523 12.938 13.3772 12.6365 13.5995 12.4142C13.8218 12.1919 14.1233 12.067 14.4377 12.067H23.9204C24.2348 12.067 24.5363 12.1919 24.7586 12.4142C24.9809 12.6365 25.1058 12.938 25.1058 13.2524C25.1058 13.5667 24.9809 13.8682 24.7586 14.0905C24.5363 14.3128 24.2348 14.4377 23.9204 14.4377H14.4377C14.1233 14.4377 13.8218 14.3128 13.5995 14.0905C13.3772 13.8682 13.2523 13.5667 13.2523 13.2524ZM14.4377 19.1791H23.9204C24.2348 19.1791 24.5363 19.0542 24.7586 18.8319C24.9809 18.6096 25.1058 18.3081 25.1058 17.9937C25.1058 17.6794 24.9809 17.3779 24.7586 17.1556C24.5363 16.9333 24.2348 16.8084 23.9204 16.8084H14.4377C14.1233 16.8084 13.8218 16.9333 13.5995 17.1556C13.3772 17.3779 13.2523 17.6794 13.2523 17.9937C13.2523 18.3081 13.3772 18.6096 13.5995 18.8319C13.8218 19.0542 14.1233 19.1791 14.4377 19.1791ZM33.4032 26.2912C33.4032 27.5486 32.9037 28.7546 32.0145 29.6438C31.1253 30.533 29.9193 31.0325 28.6618 31.0325H12.067C10.8095 31.0325 9.60353 30.533 8.71434 29.6438C7.82516 28.7546 7.32563 27.5486 7.32563 26.2912V7.32565C7.32563 6.6969 7.07586 6.09391 6.63127 5.64932C6.18668 5.20473 5.58368 4.95496 4.95494 4.95496C4.32619 4.95496 3.7232 5.20473 3.27861 5.64932C2.83402 6.09391 2.58425 6.6969 2.58425 7.32565C2.58425 8.17613 3.2999 8.75102 3.30731 8.75695C3.50349 8.90792 3.64748 9.11652 3.71908 9.35348C3.79068 9.59044 3.7863 9.84387 3.70655 10.0782C3.6268 10.3126 3.47569 10.516 3.27441 10.6601C3.07313 10.8042 2.83179 10.8817 2.58425 10.8817C2.32792 10.8821 2.07855 10.7983 1.87452 10.6431C1.70265 10.5172 0.21356 9.34221 0.21356 7.32565C0.21356 6.06815 0.713097 4.86217 1.60228 3.97299C2.49146 3.0838 3.69745 2.58427 4.95494 2.58427H25.1058C26.3633 2.58427 27.5693 3.0838 28.4585 3.97299C29.3476 4.86217 29.8472 6.06815 29.8472 7.32565V22.7351H31.0325C31.289 22.7351 31.5385 22.8183 31.7437 22.9722C31.9215 23.0996 33.4032 24.2746 33.4032 26.2912ZM13.2909 23.5471C13.3719 23.308 13.5264 23.1007 13.7324 22.9549C13.9384 22.809 14.1853 22.7321 14.4377 22.7351H27.4765V7.32565C27.4765 6.6969 27.2267 6.09391 26.7821 5.64932C26.3375 5.20473 25.7345 4.95496 25.1058 4.95496H9.05771C9.47694 5.67462 9.69733 6.49278 9.69632 7.32565V26.2912C9.69632 26.9199 9.94608 27.5229 10.3907 27.9675C10.8353 28.4121 11.4383 28.6618 12.067 28.6618C12.6958 28.6618 13.2987 28.4121 13.7433 27.9675C14.1879 27.5229 14.4377 26.9199 14.4377 26.2912C14.4377 25.4407 13.722 24.8658 13.7146 24.8599C13.5126 24.7154 13.3624 24.5098 13.2861 24.2734C13.2098 24.037 13.2115 23.7824 13.2909 23.5471ZM31.0325 26.2912C31.0177 25.852 30.8482 25.4322 30.5539 25.1058H16.6261C16.7453 25.4896 16.8057 25.8893 16.8054 26.2912C16.8066 27.1236 16.5872 27.9416 16.1698 28.6618H28.6618C29.2906 28.6618 29.8936 28.4121 30.3382 27.9675C30.7827 27.5229 31.0325 26.9199 31.0325 26.2912Z" fill="var(--fill-0, #464646)"/>
</g>
</svg>
