<svg preserveAspectRatio="none" width="100%" height="100%" overflow="visible" style="display: block;" viewBox="0 0 33.6168 33.6168" fill="none" xmlns="http://www.w3.org/2000/svg">
<g id="Frame 3">
<path id="Vector" d="M29.847 1.39891H3.76941C3.14066 1.39891 2.53767 1.64868 2.09308 2.09327C1.64849 2.53786 1.39872 3.14086 1.39872 3.7696V29.8472C1.39872 30.4759 1.64849 31.0789 2.09308 31.5235C2.53767 31.9681 3.14066 32.2179 3.76941 32.2179H29.847C30.4757 32.2179 31.0787 31.9681 31.5233 31.5235C31.9679 31.0789 32.2177 30.4759 32.2177 29.8472V3.7696C32.2177 3.14086 31.9679 2.53786 31.5233 2.09327C31.0787 1.64868 30.4757 1.39891 29.847 1.39891ZM29.847 29.8472H3.76941V3.7696H29.847V29.8472ZM12.0668 14.4377V23.9205C12.0668 24.2348 11.9419 24.5363 11.7196 24.7586C11.4973 24.9809 11.1958 25.1058 10.8815 25.1058C10.5671 25.1058 10.2656 24.9809 10.0433 24.7586C9.82101 24.5363 9.69613 24.2348 9.69613 23.9205V14.4377C9.69613 14.1233 9.82101 13.8218 10.0433 13.5995C10.2656 13.3772 10.5671 13.2524 10.8815 13.2524C11.1958 13.2524 11.4973 13.3772 11.7196 13.5995C11.9419 13.8218 12.0668 14.1233 12.0668 14.4377ZM25.1056 18.5864V23.9205C25.1056 24.2348 24.9807 24.5363 24.7584 24.7586C24.5361 24.9809 24.2346 25.1058 23.9203 25.1058C23.6059 25.1058 23.3044 24.9809 23.0821 24.7586C22.8598 24.5363 22.7349 24.2348 22.7349 23.9205V18.5864C22.7349 17.8005 22.4227 17.0467 21.867 16.491C21.3112 15.9353 20.5575 15.623 19.7716 15.623C18.9856 15.623 18.2319 15.9353 17.6761 16.491C17.1204 17.0467 16.8082 17.8005 16.8082 18.5864V23.9205C16.8082 24.2348 16.6833 24.5363 16.461 24.7586C16.2387 24.9809 15.9372 25.1058 15.6229 25.1058C15.3085 25.1058 15.007 24.9809 14.7847 24.7586C14.5624 24.5363 14.4375 24.2348 14.4375 23.9205V14.4377C14.439 14.1474 14.547 13.8677 14.741 13.6516C14.935 13.4356 15.2015 13.2983 15.4901 13.2658C15.7786 13.2333 16.069 13.3078 16.3062 13.4752C16.5435 13.6426 16.711 13.8912 16.7771 14.174C17.5789 13.63 18.5138 13.3147 19.4814 13.262C20.4489 13.2093 21.4125 13.4211 22.2687 13.8748C23.1249 14.3284 23.8414 15.0067 24.3412 15.8368C24.841 16.6669 25.1053 17.6174 25.1056 18.5864ZM12.6595 10.289C12.6595 10.6407 12.5552 10.9844 12.3598 11.2768C12.1645 11.5692 11.8868 11.7971 11.5619 11.9317C11.237 12.0662 10.8795 12.1015 10.5346 12.0328C10.1897 11.9642 9.87289 11.7949 9.62423 11.5462C9.37557 11.2976 9.20623 10.9808 9.13762 10.6359C9.06902 10.291 9.10423 9.93347 9.2388 9.60858C9.37337 9.28369 9.60127 9.006 9.89366 8.81063C10.1861 8.61526 10.5298 8.51098 10.8815 8.51098C11.353 8.51098 11.8053 8.69831 12.1387 9.03175C12.4722 9.36519 12.6595 9.81744 12.6595 10.289Z" fill="var(--fill-0, #464646)"/>
</g>
</svg>
